<svg preserveAspectRatio="none" overflow="visible" style="display: block;" width="16" height="16" viewBox="0 0 16 16" fill="none" xmlns="http://www.w3.org/2000/svg">
<g id="Icon/CalendarCheck">
<path id="Vector" d="M10.2832 7.3168C10.3205 7.35396 10.35 7.3981 10.3702 7.44669C10.3903 7.49529 10.4007 7.54739 10.4007 7.6C10.4007 7.65261 10.3903 7.70471 10.3702 7.75331C10.35 7.8019 10.3205 7.84604 10.2832 7.8832L7.8832 10.2832C7.84604 10.3205 7.8019 10.35 7.75331 10.3702C7.70471 10.3903 7.65261 10.4007 7.6 10.4007C7.54739 10.4007 7.49529 10.3903 7.44669 10.3702C7.3981 10.35 7.35396 10.3205 7.3168 10.2832L6.1168 9.0832C6.07961 9.04601 6.05011 9.00186 6.02998 8.95327C6.00985 8.90468 5.99949 8.8526 5.99949 8.8C5.99949 8.7474 6.00985 8.69532 6.02998 8.64673C6.05011 8.59814 6.07961 8.55399 6.1168 8.5168C6.19191 8.44169 6.29378 8.39949 6.4 8.39949C6.4526 8.39949 6.50468 8.40985 6.55327 8.42998C6.60186 8.45011 6.64601 8.47961 6.6832 8.5168L7.6 9.4344L9.7168 7.3168C9.75396 7.27955 9.7981 7.24999 9.84669 7.22983C9.89529 7.20966 9.94739 7.19929 10 7.19929C10.0526 7.19929 10.1047 7.20966 10.1533 7.22983C10.2019 7.24999 10.246 7.27955 10.2832 7.3168Z" fill="#1D1D1D"/>
<path id="Vector_2" d="M4.4 1.6C4.50609 1.6 4.60783 1.64214 4.68284 1.71716C4.75786 1.79217 4.8 1.89391 4.8 2V2.4H11.2V2C11.2 1.89391 11.2421 1.79217 11.3172 1.71716C11.3922 1.64214 11.4939 1.6 11.6 1.6C11.7061 1.6 11.8078 1.64214 11.8828 1.71716C11.9579 1.79217 12 1.89391 12 2V2.4H12.8C13.2243 2.4 13.6313 2.56857 13.9314 2.86863C14.2314 3.16869 14.4 3.57565 14.4 4V12.8C14.4 13.2243 14.2314 13.6313 13.9314 13.9314C13.6313 14.2314 13.2243 14.4 12.8 14.4H3.2C2.77565 14.4 2.36869 14.2314 2.06863 13.9314C1.76857 13.6313 1.6 13.2243 1.6 12.8V4C1.6 3.57565 1.76857 3.16869 2.06863 2.86863C2.36869 2.56857 2.77565 2.4 3.2 2.4H4V2C4 1.89391 4.04214 1.79217 4.11716 1.71716C4.19217 1.64214 4.29391 1.6 4.4 1.6ZM2.4 4.8V12.8C2.4 13.0122 2.48429 13.2157 2.63431 13.3657C2.78434 13.5157 2.98783 13.6 3.2 13.6H12.8C13.0122 13.6 13.2157 13.5157 13.3657 13.3657C13.5157 13.2157 13.6 13.0122 13.6 12.8V4.8H2.4Z" fill="#1D1D1D"/>
</g>
</svg>
