<svg preserveAspectRatio="none" overflow="visible" style="display: block;" width="20" height="20" viewBox="0 0 20 20" fill="none" xmlns="http://www.w3.org/2000/svg">
<g id="Icon/Exit">
<path id="Vector" d="M5.8075 5.8075C5.86556 5.7493 5.93453 5.70312 6.01046 5.67161C6.08639 5.6401 6.16779 5.62388 6.25 5.62388C6.33221 5.62388 6.41361 5.6401 6.48954 5.67161C6.56547 5.70312 6.63444 5.7493 6.6925 5.8075L10 9.11625L13.3075 5.8075C13.3656 5.74939 13.4346 5.70329 13.5105 5.67185C13.5864 5.6404 13.6678 5.62421 13.75 5.62421C13.8322 5.62421 13.9136 5.6404 13.9895 5.67185C14.0654 5.70329 14.1344 5.74939 14.1925 5.8075C14.2506 5.86561 14.2967 5.9346 14.3282 6.01052C14.3596 6.08644 14.3758 6.16782 14.3758 6.25C14.3758 6.33218 14.3596 6.41356 14.3282 6.48948C14.2967 6.5654 14.2506 6.63439 14.1925 6.6925L10.8837 10L14.1925 13.3075C14.2506 13.3656 14.2967 13.4346 14.3282 13.5105C14.3596 13.5864 14.3758 13.6678 14.3758 13.75C14.3758 13.8322 14.3596 13.9136 14.3282 13.9895C14.2967 14.0654 14.2506 14.1344 14.1925 14.1925C14.1344 14.2506 14.0654 14.2967 13.9895 14.3282C13.9136 14.3596 13.8322 14.3758 13.75 14.3758C13.6678 14.3758 13.5864 14.3596 13.5105 14.3282C13.4346 14.2967 13.3656 14.2506 13.3075 14.1925L10 10.8837L6.6925 14.1925C6.63439 14.2506 6.5654 14.2967 6.48948 14.3282C6.41356 14.3596 6.33218 14.3758 6.25 14.3758C6.16782 14.3758 6.08644 14.3596 6.01052 14.3282C5.9346 14.2967 5.86561 14.2506 5.8075 14.1925C5.74939 14.1344 5.70329 14.0654 5.67185 13.9895C5.6404 13.9136 5.62421 13.8322 5.62421 13.75C5.62421 13.6678 5.6404 13.5864 5.67185 13.5105C5.70329 13.4346 5.74939 13.3656 5.8075 13.3075L9.11625 10L5.8075 6.6925C5.7493 6.63444 5.70312 6.56547 5.67161 6.48954C5.6401 6.41361 5.62388 6.33221 5.62388 6.25C5.62388 6.16779 5.6401 6.08639 5.67161 6.01046C5.70312 5.93453 5.7493 5.86556 5.8075 5.8075Z" fill="#1D1D1D"/>
</g>
</svg>
